<?xml version="1.0" standalone="no"?><!DOCTYPE svg PUBLIC "-//W3C//DTD SVG 1.1//EN" "http://www.w3.org/Graphics/SVG/1.1/DTD/svg11.dtd"><svg t="1525779078526" class="icon" style="" viewBox="0 0 1024 1024" version="1.1" xmlns="http://www.w3.org/2000/svg" p-id="4542" xmlns:xlink="http://www.w3.org/1999/xlink" width="200" height="200"><defs><style type="text/css"></style></defs><path d="M142.685723 507.829004l118.626771 0c11.30344 0 20.451798-8.904811 20.451798-19.986193 0-11.05887-9.149381-20.451798-20.451798-20.451798L142.685723 467.391013c-11.546987 0-20.208251 9.392928-20.208251 20.451798C122.477472 498.924193 131.138736 507.829004 142.685723 507.829004L142.685723 507.829004zM142.685723 433.259658 142.685723 433.259658l118.626771 0c11.30344 0 20.451798-8.927323 20.451798-19.986193 0-11.5695-9.149381-20.451798-20.451798-20.451798L142.685723 392.821667c-11.546987 0-20.208251 8.882298-20.208251 20.451798C122.477472 424.332335 131.138736 433.259658 142.685723 433.259658L142.685723 433.259658zM961.678606 173.400259 961.678606 173.400259l-244.447385 0L717.231221 104.338347c0-18.519796-15.389502-34.175357-33.909297-34.175357L340.922646 70.162989c-18.765389 0-33.665751 15.655562-33.665751 34.175357l0 69.061912L62.809511 173.400259c-18.785855 0-34.175357 15.389502-34.175357 34.153868l0 661.905148c0 18.519796 15.389502 33.664727 34.175357 33.664727l244.447385 0 0 14.678304c0 18.542308 14.900362 34.153868 33.665751 34.153868l342.399277 0c18.519796 0 33.909297-15.611559 33.909297-34.153868l0-14.678304 244.447385 0c18.764366 0 33.68724-15.144932 33.68724-33.664727l0-661.905148C995.365846 188.789761 980.442972 173.400259 961.678606 173.400259L961.678606 173.400259zM307.256896 835.283918 307.256896 835.283918 96.474238 835.283918 96.474238 241.262856l210.782657 0L307.256896 835.283918 307.256896 835.283918zM649.391137 884.116089 649.391137 884.116089 375.098004 884.116089 375.098004 138.270157l274.293133 0L649.391137 884.116089 649.391137 884.116089zM927.503249 835.283918 927.503249 835.283918 717.231221 835.283918 717.231221 241.262856l210.272028 0L927.503249 835.283918 927.503249 835.283918zM142.685723 358.64631 142.685723 358.64631l118.626771 0c11.30344 0 20.451798-8.882298 20.451798-19.963681 0-11.304464-9.149381-20.430308-20.451798-20.430308L142.685723 318.252321c-11.546987 0-20.208251 9.124821-20.208251 20.430308C122.477472 349.764012 131.138736 358.64631 142.685723 358.64631L142.685723 358.64631zM255.516488 667.357324 255.516488 667.357324c-13.701047-13.966083-32.709983-22.404266-53.628408-22.404266-20.940938 0-39.948851 8.438183-53.428863 22.404266-13.723559 13.437034-22.140253 32.222889-22.140253 53.163827 0 20.451798 7.705496 39.21514 20.696368 52.451606l1.443885 1.197268c13.480013 13.947663 32.487925 22.385846 53.428863 22.385846 20.918425 0 39.927361-8.438183 53.628408-22.385846 13.723559-13.477966 22.3838-32.242332 22.3838-53.648874 0-20.451798-8.172123-38.508036-21.184485-52.207036L255.516488 667.357324 255.516488 667.357324zM226.670509 745.523591 226.670509 745.523591c-6.040576 6.0416-15.188934 10.349719-24.78243 10.349719-9.882068 0-18.320251-4.308119-24.537859-10.349719l-1.221828-0.709151c-5.773494-6.506181-9.371438-14.433734-9.371438-24.293289 0-9.639544 3.842515-18.054191 10.081613-24.78243l0.51063 0.466628c6.217608-6.728238 14.655791-10.8143 24.537859-10.8143 9.593496 0 18.741853 4.086062 24.78243 10.8143l0.954745 0.488117c5.773494 6.262634 9.371438 14.433734 9.371438 23.827685C236.996692 730.380706 233.154177 739.285516 226.670509 745.523591L226.670509 745.523591zM762.932076 433.259658 762.932076 433.259658l118.848828 0c11.5695 0 20.451798-8.927323 20.451798-19.986193 0-11.5695-8.882298-20.451798-20.451798-20.451798L762.932076 392.821667c-11.546987 0-20.451798 8.882298-20.451798 20.451798C742.480278 424.332335 751.384066 433.259658 762.932076 433.259658L762.932076 433.259658zM762.932076 507.829004 762.932076 507.829004l118.848828 0c11.5695 0 20.451798-8.904811 20.451798-19.986193 0-11.05887-8.882298-20.451798-20.451798-20.451798L762.932076 467.391013c-11.546987 0-20.451798 9.392928-20.451798 20.451798C742.480278 498.924193 751.384066 507.829004 762.932076 507.829004L762.932076 507.829004zM762.932076 358.64631 762.932076 358.64631l118.848828 0c11.5695 0 20.451798-8.882298 20.451798-19.963681 0-11.304464-8.882298-20.430308-20.451798-20.430308L762.932076 318.252321c-11.546987 0-20.451798 9.124821-20.451798 20.430308C742.480278 349.764012 751.384066 358.64631 762.932076 358.64631L762.932076 358.64631zM439.118086 469.100958 439.118086 469.100958l146.007375 0c11.32493 0 20.451798-8.928347 20.451798-20.451798 0-11.081383-9.126868-20.453844-20.451798-20.453844L439.118086 428.195316c-11.5695 0-20.473287 9.372461-20.473287 20.453844C418.644799 460.171588 427.548586 469.100958 439.118086 469.100958L439.118086 469.100958zM876.0289 667.357324 876.0289 667.357324c-13.723559-13.966083-32.732495-22.404266-53.91698-22.404266-20.673855 0-39.927361 8.438183-53.40635 22.404266-13.4575 13.437034-22.11774 32.222889-22.11774 53.163827 0 20.451798 8.172123 39.21514 21.162995 52.451606l0.954745 1.197268c13.478989 13.947663 32.732495 22.385846 53.40635 22.385846 21.184485 0 40.193421-8.438183 53.91698-22.385846 13.478989-13.477966 22.11774-32.242332 22.11774-53.648874 0-20.451798-7.682983-38.508036-21.161972-52.207036L876.0289 667.357324 876.0289 667.357324zM847.13892 745.523591 847.13892 745.523591c-6.240121 6.0416-14.900362 10.349719-25.027 10.349719-9.126868 0-18.276249-4.308119-24.537859-10.349719l-0.954745-0.709151c-5.773494-6.506181-9.614985-14.433734-9.614985-24.293289 0-9.639544 3.841491-18.054191 10.570753-24.78243l0 0.466628c6.262634-6.728238 15.410991-10.8143 24.537859-10.8143 10.125615 0 18.786878 4.086062 25.027 10.8143l0.978281 0.488117c5.773494 6.262634 9.370415 14.433734 9.370415 23.827685C857.486592 730.380706 853.889671 739.285516 847.13892 745.523591L847.13892 745.523591zM439.118086 285.742906 439.118086 285.742906l146.007375 0c11.32493 0 20.451798-8.882298 20.451798-20.208251 0-11.30344-9.126868-20.185738-20.451798-20.185738L439.118086 245.348917c-11.5695 0-20.473287 8.882298-20.473287 20.185738C418.644799 276.859585 427.548586 285.742906 439.118086 285.742906L439.118086 285.742906zM439.118086 377.676735 439.118086 377.676735l146.007375 0c11.32493 0 20.451798-9.392928 20.451798-20.451798 0-11.30344-9.126868-19.986193-20.451798-19.986193L439.118086 337.238744c-11.5695 0-20.473287 8.682753-20.473287 19.986193C418.644799 368.283808 427.548586 377.676735 439.118086 377.676735L439.118086 377.676735zM575.754023 673.821549 575.754023 673.821549l-1.199315-0.710175c-16.122189-16.344247-37.794791-26.203802-62.333674-26.203802-23.782659 0-45.700855 9.346879-61.578474 24.759917l-0.954745 1.443885c-15.877619 15.410991-25.981744 37.771255-25.981744 62.555731 0 24.537859 10.104125 46.699602 25.981744 62.089104 15.877619 16.365736 37.995359 26.203802 62.533218 26.203802 24.537859 0 46.211485-10.081613 62.333674-26.203802l0 0c16.122189-15.389502 26.225291-37.551244 26.225291-62.089104C600.781022 711.593827 591.143525 689.965228 575.754023 673.821549L575.754023 673.821549zM545.930787 768.886695 545.930787 768.886695c-8.66024 8.882298-20.695345 14.433734-33.709753 14.433734-13.4575 0-25.492604-5.551436-33.664727-13.96813l-0.466628 0 0.466628-0.466628c-8.904811-8.194636-14.433734-20.22974-14.433734-33.220612 0-13.478989 5.528923-25.492604 14.433734-33.68724l0.48914-0.954745c8.637728-8.416693 20.450774-13.478989 33.175587-13.478989 13.478989 0 25.048489 5.551436 33.709753 14.433734l0.954745 0.488117c8.194636 8.414647 12.991895 19.961634 12.991895 33.1981C559.877427 748.656955 554.592051 760.693082 545.930787 768.886695L545.930787 768.886695z" p-id="4543"></path></svg>