<?xml version="1.0" standalone="no"?><!DOCTYPE svg PUBLIC "-//W3C//DTD SVG 1.1//EN" "http://www.w3.org/Graphics/SVG/1.1/DTD/svg11.dtd"><svg t="1531884756536" class="icon" style="" viewBox="0 0 1024 1024" version="1.1" xmlns="http://www.w3.org/2000/svg" p-id="13515" xmlns:xlink="http://www.w3.org/1999/xlink" width="200" height="200"><defs><style type="text/css"></style></defs><path d="M1023.210667 761.301333a31.253333 31.253333 0 0 1-22.506667 26.282667c-0.106667 0.021333-0.170667 0.106667-0.277333 0.128-0.234667 0.085333-0.448 0-0.682667 0.064-2.538667 0.64-4.992 1.557333-7.744 1.557333H981.333333v170.666667h10.666667a32 32 0 0 1 0 64h-960a32 32 0 0 1 0-64h16l58.944-212.885333L106.88 746.666667a20.757333 20.757333 0 0 1 3.264-11.157334L183.850667 469.333333H128v21.333334a21.333333 21.333333 0 1 1-42.666667 0v-42.666667a20.693333 20.693333 0 0 1 2.56-9.6c0.149333-0.277333 0.362667-0.490667 0.512-0.768a20.842667 20.842667 0 0 1 6.357334-6.869333L192 333.546667V256H128v21.333333a21.333333 21.333333 0 1 1-42.666667 0v-42.666666a20.693333 20.693333 0 0 1 2.56-9.6c0.149333-0.277333 0.362667-0.490667 0.512-0.768a20.842667 20.842667 0 0 1 6.357334-6.869334L192 120.213333V21.333333c0-0.192 0.106667-0.341333 0.106667-0.490666a20.48 20.48 0 0 1 20.693333-20.714667C212.992 0.106667 213.141333 0 213.333333 0h213.333334c0.192 0 0.341333 0.106667 0.512 0.106667a20.48 20.48 0 0 1 20.693333 20.714666C447.893333 20.992 448 21.141333 448 21.333333v98.88l97.237333 97.216a20.842667 20.842667 0 0 1 6.357334 6.869334c0.170667 0.277333 0.384 0.490667 0.512 0.768A20.693333 20.693333 0 0 1 554.666667 234.666667v42.666666a21.333333 21.333333 0 1 1-42.666667 0v-21.333333h-64v77.546667l97.237333 97.216a20.842667 20.842667 0 0 1 6.357334 6.869333c0.170667 0.277333 0.384 0.490667 0.512 0.768A20.693333 20.693333 0 0 1 554.666667 448v42.666667a21.333333 21.333333 0 1 1-42.666667 0v-21.333334h-77.546667l-85.333333 85.333334 28.778667 28.757333a20.608 20.608 0 0 1-29.12 29.141333L320 583.786667 157.12 746.666667 320 909.546667l71.445333-71.445334a20.586667 20.586667 0 1 1 29.12 29.141334L349.12 938.666667l21.333333 21.333333H469.333333v-170.666667h-10.666666c-0.789333 0-1.450667-0.405333-2.218667-0.448-2.069333-0.042667-4.096 0.085333-6.208-0.490666-0.896-0.256-1.514667-0.917333-2.346667-1.216-1.834667-0.661333-3.392-1.664-5.056-2.645334-1.706667-1.045333-3.392-1.941333-4.864-3.264a30.677333 30.677333 0 0 1-5.525333-6.634666c-0.469333-0.789333-1.088-1.429333-1.514667-2.24a31.658667 31.658667 0 0 1-3.136-9.557334c-0.149333-0.832-0.405333-1.6-0.490666-2.432-0.149333-1.066667-0.64-1.984-0.64-3.072 0-2.005333 0.789333-3.712 1.130666-5.610666 0.192-1.216-0.085333-2.368 0.234667-3.562667l41.344-161.344-0.021333-0.149333c0-11.882667 6.741333-21.781333 16.341333-27.328l0.576-0.384a30.933333 30.933333 0 0 1 7.829333-2.837334c1.749333-0.448 3.434667-0.917333 5.248-1.066666 0.682667-0.021333 1.28-0.384 1.984-0.384H746.666667v-64a21.333333 21.333333 0 1 1 0-42.666667h128a21.333333 21.333333 0 1 1 0 42.666667v64h74.666666c0.704 0 1.301333 0.362667 1.984 0.405333 1.856 0.149333 3.52 0.597333 5.290667 1.066667 2.752 0.661333 5.333333 1.450667 7.765333 2.794666 0.234667 0.149333 0.448 0.32 0.682667 0.448 9.557333 5.525333 16.277333 15.445333 16.277333 27.285334l-0.021333 0.085333 41.344 160.853333c0.384 1.472 0.085333 2.901333 0.277333 4.352 0.298667 1.813333 1.066667 3.456 1.066667 5.376 0 1.045333-0.490667 1.898667-0.576 2.922667-0.042667 0.341333-0.170667 0.661333-0.213333 1.045333zM192 178.453333L157.12 213.333333H192V178.453333zM448 426.666667h34.88L448 391.786667V426.666667z m0-213.333334h34.88L448 178.453333V213.333333zM192 391.786667L157.12 426.666667H192v-34.88zM263.786667 256L320 312.213333 376.213333 256h-112.426666z m112.426666-42.666667L320 157.12 263.786667 213.333333h112.426666zM320 370.453333L263.786667 426.666667h112.426666L320 370.453333zM290.88 341.333333L234.666667 285.12v112.426667L290.88 341.333333z m0-213.333333L234.666667 71.786667v112.426666L290.88 128z m-27.093333-85.333333L320 98.88 376.213333 42.666667h-112.426666zM405.333333 71.786667L349.12 128 405.333333 184.213333v-112.426666z m0 213.333333L349.12 341.333333 405.333333 397.546667v-112.426667zM376.213333 469.333333h-112.426666L320 525.546667 376.213333 469.333333z m-85.333333 85.333334l-66.730667-66.730667-51.114666 184.554667L290.88 554.666667zM140.885333 788.672L93.44 960h176.106667l21.333333-21.333333-149.994667-149.994667zM640 960h64v-85.333333h-64v85.333333z m-106.666667 0h64v-106.666667a21.333333 21.333333 0 0 1 21.333334-21.333333h106.666666a21.333333 21.333333 0 0 1 21.333334 21.333333v106.666667h170.666666v-170.666667H533.333333v170.666667z m298.666667-469.333333h-42.666667v64h42.666667v-64z m92.48 128H526.229333l-27.328 106.666666H951.893333l-27.413333-106.666666z" p-id="13516"></path></svg>