<?xml version="1.0" standalone="no"?><!DOCTYPE svg PUBLIC "-//W3C//DTD SVG 1.1//EN" "http://www.w3.org/Graphics/SVG/1.1/DTD/svg11.dtd"><svg t="1531883379161" class="icon" style="" viewBox="0 0 1024 1024" version="1.1" xmlns="http://www.w3.org/2000/svg" p-id="9558" xmlns:xlink="http://www.w3.org/1999/xlink" width="200" height="200"><defs><style type="text/css"></style></defs><path d="M36.403429 740.346286h28.882285v22.012571h43.829715v-22.012571h349.016v21.725714h43.829714v-21.725714h28.882286c7.842286 0 14.202286-5.742857 14.202285-12.827429v-18.173714c0-7.083429-6.36-12.827429-14.202285-12.827429h-28.882286v-21.633143h28.882286c7.842286 0 14.202286-5.742857 14.202285-12.826285V643.885714c0-7.083429-6.36-12.827429-14.202285-12.827428h-28.882286v-22.2h28.882286c7.842286 0 14.202286-5.742857 14.202285-12.829715v-18.173714c0-7.083429-6.36-12.827429-14.202285-12.827428h-28.882286v-9.873143c0-6.554286-5.742857-11.865143-12.828572-11.865143h-18.173714c-7.083429 0-12.826286 5.312-12.826286 11.865143v9.873143H109.116571v-9.589715c0-6.550857-5.742857-11.865143-12.829714-11.865143H78.113143c-7.083429 0-12.826286 5.314286-12.826286 11.865143v9.589715H36.403429c-7.845714 0-14.202286 5.742857-14.202286 12.827428v18.173714c0 7.086857 6.356571 12.829714 14.202286 12.829715h28.882285v22.2H36.403429c-7.845714 0-14.202286 5.744-14.202286 12.827428v18.174857c0 7.083429 6.356571 12.826286 14.202286 12.826286h28.882285v21.633143H36.403429c-7.845714 0-14.202286 5.742857-14.202286 12.827429v18.173714c0 7.082286 6.357714 12.825143 14.202286 12.825143z m72.713142-131.486857h349.016v22.197714H109.116571v-22.197714z m0 66.027428h349.016v21.633143H109.116571v-21.633143z m442.672 108.930286H284.044571v-0.017143H15.404571c-8.506286 0-15.403429 8.626286-15.403428 19.269714v27.299429c0 10.643429 6.898286 19.268571 15.403428 19.268571h6.526858v120.266286c0 5.892571 5.742857 10.669714 12.826285 10.669714h18.173715c7.086857 0 12.829714-4.777143 12.829714-10.669714V849.636571h21.059428v78.634286c0 4.574857 5.742857 8.281143 12.829715 8.281143h18.173714c7.083429 0 12.827429-3.706286 12.827429-8.281143v-78.634286h152.500571v0.019429h153.442286v78.630857c0 4.574857 5.742857 8.284571 12.829714 8.284572h18.173714c7.083429 0 12.827429-3.709714 12.827429-8.284572v-78.630857h21.062857v120.262857c0 5.893714 5.742857 10.673143 12.829714 10.673143h18.173715c7.083429 0 12.826286-4.779429 12.826285-10.673143v-120.262857h6.472c8.506286 0 15.403429-8.628571 15.403429-19.270857v-27.297143c0-10.642286-6.896-19.270857-15.404572-19.270857z m0 0" p-id="9559"></path><path d="M715.442286 49.953143c-107.069714 0-193.867429 132.330286-193.867429 295.569143 0 140.714286 64.499429 258.449143 150.882286 288.265143V348.353143c0-23.642286 19.344-42.985143 42.986286-42.985143s42.986286 19.344 42.986285 42.985143v285.432c86.381714-29.814857 150.882286-147.550857 150.882286-288.265143-0.002286-163.236571-86.8-295.566857-193.869714-295.566857z" p-id="9560"></path><path d="M715.442286 1024c-15.714286 0-28.571429-16.820571-28.571429-37.379429V363.630857c0-20.558857 12.857143-37.379429 28.571429-37.379428s28.571429 16.820571 28.571428 37.379428v622.989714c0 20.558857-12.857143 37.379429-28.571428 37.379429z" p-id="9561"></path><path d="M449.156571 224.056a118.857143 117.813714 0 1 0 237.714286 0 118.857143 117.813714 0 1 0-237.714286 0Z" p-id="9562"></path><path d="M399.595429 341.869714a88.688 87.909714 0 1 0 177.376 0 88.688 87.909714 0 1 0-177.376 0Z" p-id="9563"></path><path d="M432.885714 444.065143a88.688 87.909714 0 1 0 177.376 0 88.688 87.909714 0 1 0-177.376 0Z" p-id="9564"></path><path d="M568.013714 117.813714a118.857143 117.813714 0 1 0 237.714286 0 118.857143 117.813714 0 1 0-237.714286 0Z" p-id="9565"></path><path d="M776.008 326.251429a118.857143 117.813714 0 1 0 237.714286 0 118.857143 117.813714 0 1 0-237.714286 0Z" p-id="9566"></path><path d="M744.012571 163.620571a91.426286 90.622857 0 1 0 182.852572 0 91.426286 90.622857 0 1 0-182.852572 0Z" p-id="9567"></path><path d="M790.860571 486.059429a74.314286 73.661714 0 1 0 148.628572 0 74.314286 73.661714 0 1 0-148.628572 0Z" p-id="9568"></path><path d="M777.549714 553.012571a50.434286 49.990857 0 1 0 100.868572 0 50.434286 49.990857 0 1 0-100.868572 0Z" p-id="9569"></path><path d="M546.115429 531.974857a41.493714 41.130286 0 1 0 82.987428 0 41.493714 41.130286 0 1 0-82.987428 0Z" p-id="9570"></path><path d="M0.084571 978.285714c0-25.142857 24.685714-45.714286 54.857143-45.714285h914.285715c30.171429 0 54.857143 20.571429 54.857142 45.714285s-24.685714 45.714286-54.857142 45.714286H54.941714c-30.171429 0-54.857143-20.571429-54.857143-45.714286z" p-id="9571"></path></svg>