<?xml version="1.0" standalone="no"?><!DOCTYPE svg PUBLIC "-//W3C//DTD SVG 1.1//EN" "http://www.w3.org/Graphics/SVG/1.1/DTD/svg11.dtd"><svg t="1531882782291" class="icon" style="" viewBox="0 0 1024 1024" version="1.1" xmlns="http://www.w3.org/2000/svg" p-id="5679" xmlns:xlink="http://www.w3.org/1999/xlink" width="200" height="200"><defs><style type="text/css"></style></defs><path d="M170.477734 489.206976h6.244664c9.866569 51.081351 31.847786 99.165264 64.070252 140.005367l-72.937675 73.062569c39.341383 39.21649 102.912062 39.21649 142.253445 0l4.371265-4.371265c10.366142 6.994024 21.106964 13.363581 32.222466 19.233565 42.463715-10.116356 87.300402-0.74936 122.145628 25.478229l35.219905 26.727162 35.219904-26.727162c32.097573-24.229296 72.687889-34.220759 112.279059-27.601415 16.860593-8.992316 32.846933-19.483352 47.834126-31.348213l71.064276 71.064276 10.366142-7.868277c30.84864-39.965849 27.226735-96.667398-8.492743-132.386876l-4.371264-4.371265c29.225027-43.088181 47.58434-92.54592 53.70411-144.126845h103.036956c0-55.577509-45.086474-100.663983-100.663984-100.663983h-6.244664c-9.866569-51.081351-31.97268-99.165264-64.195146-140.005366l72.937676-72.937676c-39.341383-39.21649-102.912062-39.21649-142.253446 0l-4.371265 4.371265c-42.963288-29.349921-92.54592-47.709233-144.251738-53.70411v-103.036956C480.088174 0 435.0017 45.086474 435.0017 100.663983v6.369558c-51.081351 9.741676-99.040371 31.598-139.880473 63.695572L222.308445 97.666545c-39.21649 39.21649-39.21649 102.912062 0 142.253445l4.371264 4.371265C197.454682 287.379437 179.09537 336.837175 172.975599 388.542993h-103.036956c0 55.577509 44.961581 100.663983 100.539091 100.663983z m76.434687-92.046347c4.745945-39.840956 18.858885-78.0583 41.339675-111.404805l21.856324-32.472253 31.22332-24.728869c31.598-24.853763 68.566411-41.839249 108.032687-49.457739l38.46713-7.368703 39.341383 4.621051c39.840956 4.745945 78.0583 18.858885 111.404806 41.339675l32.472252 21.856324 24.72887 31.22332c24.853763 31.598 41.839249 68.566411 49.457739 108.032687l7.368703 38.46713-4.621051 39.341383c-4.745945 39.840956-18.858885 78.0583-41.339676 111.404806l-21.856324 32.472253-31.22332 24.728869c-31.598 24.853763-68.566411 41.839249-108.032687 49.457739l-38.46713 7.368703-39.341383-4.621051c-39.840956-4.745945-78.0583-18.858885-111.404805-41.339676l-32.72204-21.856324-24.728869-31.22332c-24.853763-31.598-41.839249-68.566411-49.457739-108.032686l-7.368703-38.467131 4.870838-39.341383z m257.280156 625.590438c-23.729723 0-46.83498-7.743383-65.818759-21.981217L401.280514 972.918649c-12.364435-9.366996-29.474814-9.366996-41.839248 0l-37.093304 27.851201c-38.966703 29.349921-92.670814 29.349921-131.512624 0l-37.093304-27.851201c-12.364435-9.366996-29.474814-9.366996-41.839249 0L63.693979 1009.262593c-16.36102 12.364435-39.59117 9.242103-52.080497-7.118917-12.364435-16.36102-9.242103-39.59117 7.118917-52.080498l47.959019-36.343944c38.966703-29.349921 92.670814-29.349921 131.512624 0l37.093304 27.851201c12.364435 9.366996 29.474814 9.366996 41.839248 0l37.093304-27.851201c38.966703-29.349921 92.670814-29.349921 131.512624 0l37.093304 27.851201c12.364435 9.366996 29.474814 9.366996 41.839249 0l37.093304-27.851201c38.966703-29.349921 92.670814-29.349921 131.512623 0l37.093304 27.851201c12.364435 9.366996 29.474814 9.366996 41.839249 0l37.093304-27.851201c38.966703-29.349921 92.670814-29.349921 131.512624 0l37.093304 27.851201c16.36102 12.364435 19.483352 35.719478 7.118917 52.080498-12.364435 16.36102-35.719478 19.483352-52.080498 7.118917L895.857902 972.918649c-12.364435-9.366996-29.474814-9.366996-41.839249 0l-37.093304 27.851201c-38.966703 29.349921-92.670814 29.349921-131.512623 0l-37.093304-27.851201c-12.364435-9.366996-29.474814-9.366996-41.839249 0l-37.093304 27.851201c-18.484205 14.237834-41.464569 21.981217-65.194292 21.981217z m0 0" p-id="5680"></path><path d="M504.192577 880.997195c-23.729723 0-46.83498-7.743383-65.818759-21.981217L401.280514 831.164776c-12.364435-9.366996-29.474814-9.366996-41.839248 0l-37.093304 27.851202c-38.966703 29.349921-92.670814 29.349921-131.512624 0l-37.093304-27.851202c-12.364435-9.366996-29.474814-9.366996-41.839249 0l-47.959019 36.343945c-16.36102 12.364435-39.59117 9.242103-52.080498-7.118917-12.364435-16.36102-9.242103-39.59117 7.118917-52.080498l47.95902-36.343944c38.966703-29.349921 92.670814-29.349921 131.512623 0l37.093304 27.851201c12.364435 9.366996 29.474814 9.366996 41.839249 0l37.093304-27.851201c38.966703-29.349921 92.670814-29.349921 131.512624 0l37.093304 27.851201c12.364435 9.366996 29.474814 9.366996 41.839248 0l37.093304-27.851201c38.966703-29.349921 92.670814-29.349921 131.512624 0l37.093304 27.851201c12.364435 9.366996 29.474814 9.366996 41.839249 0l37.093304-27.851201c38.966703-29.349921 92.670814-29.349921 131.512623 0l37.093304 27.851201c16.36102 12.364435 19.483352 35.719478 7.118917 52.080498-12.364435 16.36102-35.719478 19.483352-52.080497 7.118917l-37.093305-27.851202c-12.364435-9.366996-29.474814-9.366996-41.839248 0L817.175136 859.015978c-38.966703 29.349921-92.670814 29.349921-131.512624 0L648.569208 831.164776c-12.364435-9.366996-29.474814-9.366996-41.839249 0l-37.093304 27.851202c-18.733992 14.237834-41.714355 21.981217-65.444078 21.981217z m0 0" p-id="5681"></path><path d="M502.568964 273.890962h74.311502s14.987194 5.245518-17.859739 44.212221-56.576656 73.687035-56.576656 73.687035h103.036956S553.525422 462.479815 426.758743 619.59556l76.060008-170.354433H418.765574s-9.991462 1.12404 4.995731-25.977802 78.183193-149.372362 78.183193-149.372363h0.624466z m0 0" p-id="5682"></path></svg>