<?xml version="1.0" standalone="no"?><!DOCTYPE svg PUBLIC "-//W3C//DTD SVG 1.1//EN" "http://www.w3.org/Graphics/SVG/1.1/DTD/svg11.dtd"><svg t="1531798584792" class="icon" style="" viewBox="0 0 1024 1024" version="1.1" xmlns="http://www.w3.org/2000/svg" p-id="1462" xmlns:xlink="http://www.w3.org/1999/xlink" width="200" height="200"><defs><style type="text/css"></style></defs><path d="M597.632096 446.125657a38.473692 38.473692 0 0 0-38.19174 38.704381 38.422428 38.422428 0 0 0 38.448061 38.191739h3.588485v62.542178c0 21.274593 17.173467 38.44806 38.44806 38.44806s38.44806-17.173467 38.44806-38.44806v-63.182979l97.658073-0.768961v63.95194c0 21.274593 17.173467 38.44806 38.44806 38.44806s38.44806-17.173467 38.44806-38.44806v-64.592741l59.466333-0.512641v34.731414c0 21.274593 17.173467 38.44806 38.44806 38.448061s38.44806-17.173467 38.44806-38.448061v-112.140175l-391.657572 3.075845zM915.725713 407.549437h71.769712v-76.89612h-71.769712V166.4801L876.124211 60.235294H580.202309l-37.807259 106.629287V407.549437h373.330663z m-76.89612-76.89612h-56.134168v-86.508136H671.708692v86.508136h-52.289362V180.065081l15.251064-42.933667h188.139174l16.148185 43.318148V330.653317zM358.997803 454.58423a38.345532 38.345532 0 0 0-54.083604 5.510889L43.46739 780.62378a38.345532 38.345532 0 0 0 5.510889 54.083604c7.176971 5.895369 15.763705 8.714894 24.222278 8.714894 11.149937 0 22.171715-4.870088 29.861326-14.097622L364.636852 508.795995c13.328661-16.532666 10.893617-40.754944-5.639049-54.211765zM73.200557 522.893617c9.099374 0 18.198748-3.204005 25.50388-9.612015L360.279405 282.080601a38.51214 38.51214 0 0 0-51.007759-57.67209L47.696677 455.609512a38.51214 38.51214 0 0 0-3.332165 54.339925A38.3199 38.3199 0 0 0 73.200557 522.893617zM473.316702 663.357196l-21.018273-8.330413c-42.036546-16.660826-89.199499-14.097622-129.185482 7.048811l-23.581477 12.43154a38.422428 38.422428 0 1 0 35.756696 68.053066l23.581477-12.431539c20.121151-10.637297 43.830788-11.918899 65.105382-3.588486l21.018273 8.330413c29.989487 11.918899 62.414018 14.097622 93.813266 6.40801l42.549187-10.380976a78.562203 78.562203 0 0 1 43.189987 1.794243l31.014769 10.380976c33.193492 11.021777 69.462829 10.509136 102.271839-1.409762l54.211765-19.864831a77.921402 77.921402 0 0 1 63.054819 4.229286l52.545682 27.554443c5.767209 2.947685 11.790738 4.357447 17.814268 4.357447 13.841302 0 27.169962-7.433292 34.090613-20.633792 9.868335-18.839549 2.691364-42.036546-16.148185-51.904881l-52.545682-27.554443a155.548035 155.548035 0 0 0-125.340676-8.330413l-54.211765 19.864831c-16.532666 6.023529-34.859574 6.27985-51.520401 0.768961l-31.014768-10.380976c-27.810763-9.227534-57.41577-10.509136-85.867334-3.588486l-42.549187 10.380977c-15.635544 3.844806-31.91189 2.691364-47.034793-3.204006zM963.529468 813.817272l-56.646809-29.733167c-36.013016-18.96771-78.562203-21.787234-116.753942-7.817772l-62.029537 22.684355c-14.353942 5.254568-30.117647 5.382728-44.59975 0.640801l-37.422778-12.559699c-25.88836-8.586733-53.570964-9.740175-79.971965-3.332165l-48.700876 11.918898c-13.713141 3.332165-27.810763 2.306884-40.883104-2.819524l-28.579725-11.278098a144.103329 144.103329 0 0 0-120.470588 6.53617l-12.81602 6.792491c-16.788986 8.843054-36.653817 10.252816-54.468085 3.716646l-42.933667-15.635545c-19.864831-7.176971-42.036546 3.075845-49.341677 22.940676-7.305131 19.992991 3.075845 42.036546 22.940676 49.341677l42.933667 15.635545c38.19174 13.841302 80.740926 11.021777 116.625782-7.945933l12.81602-6.79249a67.027785 67.027785 0 0 1 56.262328-3.075845l28.579724 11.278097c27.938924 11.021777 58.184731 13.200501 87.405257 6.02353l48.700876-11.918899a67.668586 67.668586 0 0 1 37.422779 1.537923l37.422778 12.559699c30.886608 10.252816 64.720901 9.868335 95.351189-1.409762L816.529718 848.548686a67.668586 67.668586 0 0 1 54.596245 3.588485l56.646809 29.733167c5.767209 2.947685 11.790738 4.357447 17.814268 4.357447 13.841302 0 27.169962-7.433292 34.090613-20.633793a38.3199 38.3199 0 0 0-16.148185-51.77672zM963.529468 951.589487l-53.955444-28.323404a151.15214 151.15214 0 0 0-122.392992-8.074093l-56.903129 20.890113c-15.763705 5.767209-33.193492 6.023529-49.085356 0.640801l-33.193492-11.149938c-27.041802-9.099374-56.134168-10.252816-83.816771-3.460325l-44.59975 10.893617c-15.122904 3.716646-30.630288 2.563204-45.11239-3.075845l-23.581477-9.355695c-41.139424-16.276345-87.148936-13.841302-126.237797 6.792491l-7.305132 3.844806c-18.583229 9.740175-40.498623 11.278098-60.107134 4.101126-34.603254-12.5597-72.538673-12.175219-106.757447 1.281602l-19.992991 7.817773c-19.736671 7.689612-29.605006 29.989487-21.787234 49.854318 7.689612 19.736671 29.989487 29.605006 49.854318 21.787234l19.992991-7.817773c16.917146-6.53617 35.500375-6.792491 52.545682-0.640801 39.985982 14.610263 84.585732 11.534418 122.264831-8.330413l7.305132-3.844806c19.22403-10.124656 41.908385-11.406258 62.029537-3.332165l23.581477 9.355695c29.348686 11.534418 61.004255 13.841302 91.634543 6.27985l44.599749-10.893617c13.713141-3.332165 27.938924-2.691364 41.267585 1.666082l33.193492 11.149938c32.424531 10.765457 67.924906 10.252816 99.964956-1.409763l56.903129-20.890112c19.736671-7.176971 41.652065-5.767209 60.235294 3.972966l53.955444 28.323404c5.767209 2.947685 11.790738 4.357447 17.814268 4.357447 13.841302 0 27.169962-7.433292 34.090613-20.633792 9.612015-18.711389 2.435044-41.908385-16.404505-51.776721zM421.924462 539.554443a32.04005 32.04005 0 0 0 0 64.0801h16.276345c3.844806 13.328661 16.020025 23.196996 30.630288 23.196996a32.04005 32.04005 0 0 0 32.04005-32.04005V32.04005a32.04005 32.04005 0 0 0-64.0801 0v79.843805h-14.866583a32.04005 32.04005 0 0 0 0 64.0801h14.866583v78.562203h-14.866583a32.04005 32.04005 0 0 0 0 64.0801h14.866583v78.562203h-14.866583a32.04005 32.04005 0 0 0 0 64.0801h14.866583v78.562202h-14.866583z" p-id="1463"></path></svg>