<?xml version="1.0" encoding="UTF-8"?>
<!DOCTYPE svg PUBLIC "-//W3C//DTD SVG 1.1//EN" "http://www.w3.org/Graphics/SVG/1.1/DTD/svg11.dtd">
<!-- Creator: CorelDRAW X7 -->
<svg xmlns="http://www.w3.org/2000/svg" xml:space="preserve" width="28.9278mm" height="14.8681mm" version="1.1" style="shape-rendering:geometricPrecision; text-rendering:geometricPrecision; image-rendering:optimizeQuality; fill-rule:evenodd; clip-rule:evenodd"
viewBox="0 0 68085 34994"
 xmlns:xlink="http://www.w3.org/1999/xlink">
 <defs>
  <style type="text/css">
   <![CDATA[
    .fil1 {fill:#FEFEFE;fill-rule:nonzero}
    .fil2 {fill:white;fill-rule:nonzero}
    .fil4 {fill:#3C5573;fill-rule:nonzero}
    .fil3 {fill:#929BAD;fill-rule:nonzero}
    .fil5 {fill:#79849A;fill-rule:nonzero}
    .fil0 {fill:#40506F;fill-rule:nonzero}
   ]]>
  </style>
 </defs>
 <g id="圖層_x0020_1">
  <metadata id="CorelCorpID_0Corel-Layer"/>
  <g id="_1472131104">
   <g>
    <g>
     <g>
      <g>
       <polygon class="fil0" points="39087,11189 0,11189 0,3234 39087,3234 "/>
       <g>
        <path class="fil1" d="M8815 5840l0 4178 911 0c1434,0 2285,-889 2285,-2053 0,-1165 -784,-2125 -2468,-2125l-728 0zm938 3325l0 0 0 -2512c915,-51 1325,594 1325,1330 0,703 -429,1240 -1325,1182z"/>
        <polygon class="fil1" points="21508,5840 20565,5840 20565,8160 17997,5768 17997,10018 18936,10018 18936,7840 21508,10189 "/>
        <polygon class="fil1" points="21909,6651 23056,6651 23056,10018 24066,10018 24066,6651 25200,6651 25200,5840 21909,5840 "/>
        <polygon class="fil1" points="25570,10018 25570,5840 28032,5840 28032,6633 26516,6633 26516,7524 27880,7524 27880,8327 26516,8327 26516,9217 28032,9217 28032,10018 "/>
        <polygon class="fil1" points="34580,5840 34580,7529 32964,7529 32964,5840 32022,5840 32022,10018 32964,10018 32964,8327 34580,8327 34580,10018 35521,10018 35521,5840 "/>
        <polygon class="fil2" points="11557,5840 13696,10134 14211,9043 12650,5840 "/>
        <polygon class="fil2" points="15815,5695 15297,6781 15738,7896 14762,7896 14433,8587 16008,8587 16602,10018 17695,10018 "/>
        <path class="fil2" d="M28235 7939c0,1369 1032,2130 2305,2130 501,0 780,-143 989,-251l0 -991c-194,257 -580,427 -971,427 -761,0 -1367,-515 -1367,-1342 0,-820 670,-1310 1367,-1310 391,0 777,172 971,428l0 -919c-179,-156 -499,-292 -1000,-292 -1272,0 -2294,904 -2294,2120z"/>
        <path class="fil2" d="M5557 8381l601 -1477 600 1477 -1201 0zm3030 1637l0 0 -2394 -5218 -2417 5218 1183 0 341 -872 1713 0 344 872 1230 0z"/>
       </g>
      </g>
     </g>
    </g>
   </g>
   <path class="fil0" d="M55562 12733l-12104 0 2734 -7757 12105 0 -2735 7757zm-11110 -704l0 0 10612 0 2239 -6349 -10612 0 -2239 6349z"/>
   <path class="fil3" d="M64770 9404l-15567 0 3316 -9404 15566 0 -3315 9404zm-14573 -703l0 0 14075 0 2819 -7998 -14074 0 -2820 7998z"/>
   <g>
    <g>
     <g>
      <g>
       <polygon class="fil0" points="39078,11187 0,11187 0,3234 39078,3234 "/>
       <g>
        <path class="fil1" d="M8813 5839l0 4177 911 0c1433,0 2285,-888 2285,-2053 0,-1164 -785,-2124 -2468,-2124l-728 0zm938 3325l0 0 0 -2512c915,-51 1324,594 1324,1329 0,703 -429,1240 -1324,1183z"/>
        <polygon class="fil1" points="21503,5839 20561,5839 20561,8158 17992,5767 17992,10016 18932,10016 18932,7838 21503,10187 "/>
        <polygon class="fil1" points="21904,6650 23050,6650 23050,10016 24060,10016 24060,6650 25194,6650 25194,5839 21904,5839 "/>
        <polygon class="fil1" points="25564,10016 25564,5839 28025,5839 28025,6632 26510,6632 26510,7522 27874,7522 27874,8326 26510,8326 26510,9216 28025,9216 28025,10016 "/>
        <polygon class="fil1" points="34572,5839 34572,7528 32956,7528 32956,5839 32014,5839 32014,10016 32956,10016 32956,8326 34572,8326 34572,10016 35512,10016 35512,5839 "/>
        <polygon class="fil2" points="11554,5839 13692,10132 14207,9041 12647,5839 "/>
        <polygon class="fil2" points="15812,5695 15294,6780 15735,7895 14758,7895 14430,8585 16004,8585 16598,10016 17690,10016 "/>
        <path class="fil2" d="M28228 7937c0,1369 1031,2130 2305,2130 501,0 780,-142 988,-251l0 -990c-193,257 -579,427 -971,427 -760,0 -1366,-515 -1366,-1342 0,-820 670,-1310 1366,-1310 392,0 778,172 971,429l0 -919c-178,-157 -498,-293 -999,-293 -1272,0 -2294,904 -2294,2119z"/>
        <path class="fil2" d="M5555 8379l602 -1476 600 1476 -1202 0zm3030 1637l0 0 -2394 -5217 -2416 5217 1183 0 340 -871 1713 0 345 871 1229 0z"/>
       </g>
      </g>
     </g>
    </g>
   </g>
   <g>
    <g>
     <polygon class="fil4" points="426,15179 3037,15179 4001,23074 4032,23074 5182,15179 7606,15179 8849,23074 8880,23074 9813,15179 12330,15179 10403,26275 7513,26275 6378,18396 6347,18396 5275,26275 2385,26275 "/>
     <polygon class="fil4" points="12734,15179 15345,15179 15345,26275 12734,26275 "/>
     <path class="fil4" d="M18623 22887l0 389c0,839 233,1476 1135,1476 917,0 1181,-684 1181,-1321 0,-2393 -4771,-1057 -4771,-5206 0,-1771 948,-3263 3636,-3263 2611,0 3543,1321 3543,3030l0 264 -2517 0c0,-528 -62,-916 -218,-1165 -155,-264 -404,-389 -792,-389 -653,0 -1041,389 -1041,1197 0,2315 4771,1150 4771,5066 0,2517 -1399,3527 -3792,3527 -1896,0 -3652,-575 -3652,-2890l0 -715 2517 0z"/>
     <polygon class="fil4" points="24264,15179 30682,15179 30682,17293 26875,17293 26875,19515 30449,19515 30449,21628 26875,21628 26875,24161 30853,24161 30853,26275 24264,26275 "/>
     <polygon class="fil4" points="31210,20727 35903,20727 35903,22841 31210,22841 "/>
     <path class="fil4" d="M36695 15179l4041 0c2750,0 3279,1989 3279,3372 0,1990 -948,3388 -3559,3388l-1150 0 0 4336 -2611 0 0 -11096zm2611 4833l0 0 715 0c1041,0 1290,-652 1290,-1398 0,-855 -280,-1507 -1337,-1507l-668 0 0 2905z"/>
     <path class="fil4" d="M44061 20447c16,-1150 358,-1849 948,-2253 591,-404 1306,-544 2347,-544 2067,0 2983,715 2983,2486l0 4321c0,637 0,1445 296,1818l-2424 0c-94,-296 -125,-638 -140,-964l-31 0c-342,746 -1135,1181 -1974,1181 -1414,0 -2238,-746 -2238,-2564 0,-979 404,-1802 1026,-2144 621,-342 1554,-498 2253,-684 762,-202 901,-326 901,-964 0,-512 -233,-839 -792,-839 -699,0 -901,420 -917,1150l-2238 0zm2922 4305l0 0c528,0 1010,-311 1010,-1150 0,-699 15,-1134 15,-1476 -792,419 -1134,435 -1367,621 -264,202 -389,467 -389,933 0,668 265,1072 731,1072z"/>
     <path class="fil4" d="M51287 20447c16,-1150 358,-1849 948,-2253 591,-404 1306,-544 2347,-544 2067,0 2983,715 2983,2486l0 4321c0,637 0,1445 296,1818l-2425 0c-93,-296 -124,-638 -140,-964l-30 0c-342,746 -1135,1181 -1974,1181 -1414,0 -2238,-746 -2238,-2564 0,-979 404,-1802 1026,-2144 621,-342 1554,-498 2253,-684 761,-202 901,-326 901,-964 0,-512 -233,-839 -792,-839 -699,0 -901,420 -917,1150l-2238 0zm2922 4305l0 0c528,0 1010,-311 1010,-1150 0,-699 15,-1134 15,-1476 -792,419 -1134,435 -1367,621 -264,202 -389,467 -389,933 0,668 265,1072 731,1072z"/>
     <path class="fil4" d="M60829 22887l0 389c0,839 233,1476 1134,1476 917,0 1181,-684 1181,-1321 0,-2393 -4771,-1057 -4771,-5206 0,-1771 948,-3263 3637,-3263 2610,0 3543,1321 3543,3030l0 264 -2518 0c0,-528 -62,-916 -217,-1165 -156,-264 -405,-389 -793,-389 -653,0 -1041,389 -1041,1197 0,2315 4771,1150 4771,5066 0,2517 -1399,3527 -3792,3527 -1896,0 -3652,-575 -3652,-2890l0 -715 2518 0z"/>
    </g>
   </g>
   <g>
    <polygon class="fil5" points="3818,33365 3818,33825 1109,33825 1109,29637 3760,29637 3760,30098 1634,30098 1634,31429 3321,31429 3321,31855 1634,31855 1634,33365 "/>
    <path class="fil5" d="M6772 29637l0 4188 -436 0 0 -531c-217,411 -544,617 -980,617 -362,0 -660,-152 -894,-456 -233,-304 -350,-688 -350,-1153 0,-475 116,-871 347,-1187 231,-316 538,-474 920,-474 372,0 676,169 911,509l0 -1513 482 0zm-482 2286l0 0c0,-272 -82,-490 -248,-654 -166,-163 -359,-245 -580,-245 -239,0 -436,106 -590,319 -155,213 -232,511 -232,896 0,415 71,731 213,948 142,217 337,325 585,325 225,0 423,-94 595,-282 171,-188 257,-409 257,-663l0 -644z"/>
    <path class="fil5" d="M10109 30242l0 383c-221,0 -368,26 -443,77 -75,51 -124,143 -149,276 199,229 298,479 298,748 0,283 -108,525 -324,728 -216,202 -505,303 -869,303 -82,0 -153,-6 -212,-18 -113,-23 -183,-34 -212,-34 -55,0 -122,27 -199,81 -78,55 -117,125 -117,211 0,122 56,202 169,239 112,37 377,60 794,70 354,11 616,35 784,73 169,37 312,121 428,251 117,130 175,289 175,477 0,591 -519,887 -1558,887 -493,0 -853,-75 -1079,-223 -226,-148 -339,-347 -339,-594 0,-301 158,-508 473,-621 -203,-132 -304,-299 -304,-499 0,-239 143,-422 429,-549 -268,-217 -402,-490 -402,-819 0,-307 115,-558 344,-754 229,-197 509,-294 838,-294 233,0 445,44 635,131 30,-202 101,-342 213,-420 112,-78 281,-116 508,-116 22,0 62,2 119,6zm-2049 3457l0 0c-225,98 -338,240 -338,427 0,157 93,279 278,366 185,87 421,131 707,131 266,0 510,-38 731,-112 220,-75 331,-201 331,-379 0,-96 -33,-175 -98,-237 -66,-61 -155,-100 -269,-116 -113,-16 -311,-29 -594,-37 -337,-8 -587,-22 -748,-43zm577 -1310l0 0c204,0 371,-63 500,-188 129,-126 193,-289 193,-490 0,-204 -67,-371 -201,-501 -134,-130 -296,-195 -486,-195 -182,0 -344,61 -485,182 -141,122 -211,296 -211,520 0,201 63,363 190,487 127,123 293,185 500,185z"/>
    <path class="fil5" d="M12554 32902l448 92c-82,264 -242,483 -479,657 -237,173 -516,260 -838,260 -423,0 -765,-149 -1027,-447 -262,-298 -393,-688 -393,-1171 0,-494 136,-893 408,-1196 272,-304 614,-456 1025,-456 405,0 731,140 977,420 246,280 373,699 379,1258l-2252 0c0,468 98,784 295,948 196,163 403,245 622,245 395,0 673,-204 835,-610zm-28 -942l0 0c-4,-174 -33,-329 -86,-464 -53,-135 -143,-250 -270,-345 -127,-95 -279,-142 -457,-142 -239,0 -442,86 -609,257 -166,172 -260,403 -280,694l1702 0z"/>
    <polygon class="fil5" points="15602,33825 15078,33825 15078,29637 15602,29637 "/>
    <path class="fil5" d="M18890 33825l-451 0 0 -1991c0,-286 -62,-488 -187,-604 -125,-117 -276,-175 -454,-175 -245,0 -451,98 -618,294 -167,197 -250,455 -250,776l0 1700 -482 0 0 -3099 448 0 0 571c252,-438 578,-656 979,-656 231,0 428,59 591,179 162,119 274,254 334,404 60,149 90,419 90,809l0 1792z"/>
    <path class="fil5" d="M21102 33497l0 380c-170,23 -317,34 -442,34 -599,0 -899,-313 -899,-940l0 -1867 -549 0 0 -378 549 0 21 -779 448 -43 0 822 694 0 0 378 -694 0 0 1947c0,320 166,480 497,480 111,0 236,-12 375,-34z"/>
    <path class="fil5" d="M23411 32902l448 92c-82,264 -241,483 -479,657 -237,173 -516,260 -837,260 -423,0 -766,-149 -1028,-447 -262,-298 -393,-688 -393,-1171 0,-494 136,-893 408,-1196 273,-304 614,-456 1025,-456 405,0 731,140 977,420 247,280 373,699 379,1258l-2252 0c0,468 99,784 295,948 196,163 404,245 623,245 394,0 673,-204 834,-610zm-28 -942l0 0c-4,-174 -32,-329 -85,-464 -54,-135 -144,-250 -270,-345 -127,-95 -280,-142 -458,-142 -239,0 -442,86 -608,257 -167,172 -261,403 -281,694l1702 0z"/>
    <polygon class="fil5" points="24960,33825 24478,33825 24478,29637 24960,29637 "/>
    <polygon class="fil5" points="26248,33825 25766,33825 25766,29637 26248,29637 "/>
    <path class="fil5" d="M27551 29637l0 537 -519 0 0 -537 519 0zm-15 1089l0 0 0 3099 -482 0 0 -3099 482 0z"/>
    <path class="fil5" d="M30870 30242l0 383c-221,0 -369,26 -444,77 -74,51 -124,143 -148,276 198,229 297,479 297,748 0,283 -108,525 -323,728 -216,202 -506,303 -870,303 -82,0 -153,-6 -212,-18 -112,-23 -183,-34 -212,-34 -55,0 -121,27 -199,81 -78,55 -116,125 -116,211 0,122 56,202 168,239 113,37 378,60 795,70 354,11 615,35 784,73 168,37 311,121 428,251 116,130 175,289 175,477 0,591 -520,887 -1559,887 -493,0 -852,-75 -1078,-223 -226,-148 -339,-347 -339,-594 0,-301 157,-508 472,-621 -202,-132 -303,-299 -303,-499 0,-239 143,-422 429,-549 -268,-217 -402,-490 -402,-819 0,-307 114,-558 344,-754 229,-197 508,-294 837,-294 233,0 445,44 635,131 31,-202 102,-342 213,-420 112,-78 281,-116 508,-116 23,0 62,2 120,6zm-2050 3457l0 0c-224,98 -337,240 -337,427 0,157 93,279 278,366 185,87 420,131 707,131 266,0 509,-38 730,-112 221,-75 331,-201 331,-379 0,-96 -32,-175 -98,-237 -65,-61 -155,-100 -268,-116 -114,-16 -312,-29 -594,-37 -338,-8 -587,-22 -749,-43zm577 -1310l0 0c205,0 371,-63 500,-188 129,-126 194,-289 194,-490 0,-204 -67,-371 -201,-501 -134,-130 -296,-195 -487,-195 -182,0 -343,61 -484,182 -142,122 -212,296 -212,520 0,201 63,363 190,487 127,123 294,185 500,185z"/>
    <path class="fil5" d="M33314 32902l448 92c-81,264 -241,483 -478,657 -238,173 -517,260 -838,260 -423,0 -766,-149 -1028,-447 -262,-298 -392,-688 -392,-1171 0,-494 136,-893 408,-1196 272,-304 613,-456 1025,-456 404,0 730,140 977,420 246,280 372,699 378,1258l-2252 0c0,468 99,784 295,948 196,163 404,245 623,245 395,0 673,-204 834,-610zm-27 -942l0 0c-4,-174 -33,-329 -86,-464 -53,-135 -143,-250 -270,-345 -127,-95 -279,-142 -457,-142 -240,0 -443,86 -609,257 -167,172 -261,403 -281,694l1703 0z"/>
    <path class="fil5" d="M36823 33825l-451 0 0 -1991c0,-286 -62,-488 -187,-604 -125,-117 -276,-175 -454,-175 -245,0 -451,98 -618,294 -167,197 -250,455 -250,776l0 1700 -482 0 0 -3099 448 0 0 571c252,-438 578,-656 979,-656 231,0 428,59 590,179 163,119 274,254 335,404 60,149 90,419 90,809l0 1792z"/>
    <path class="fil5" d="M39461 32739l436 77c-62,342 -198,610 -408,804 -211,194 -474,291 -789,291 -427,0 -753,-158 -977,-473 -224,-315 -336,-700 -336,-1155 0,-471 118,-862 354,-1174 237,-312 558,-468 965,-468 338,0 608,100 812,302 203,201 330,461 379,780l-436 83c-82,-511 -329,-767 -741,-767 -265,0 -469,113 -612,339 -143,226 -215,519 -215,879 0,397 71,705 213,925 142,220 342,330 599,330 398,0 650,-257 756,-773z"/>
    <path class="fil5" d="M42446 32902l448 92c-82,264 -242,483 -479,657 -237,173 -516,260 -838,260 -423,0 -765,-149 -1027,-447 -262,-298 -393,-688 -393,-1171 0,-494 136,-893 408,-1196 272,-304 613,-456 1025,-456 405,0 730,140 977,420 246,280 373,699 379,1258l-2252 0c0,468 98,784 295,948 196,163 403,245 622,245 395,0 673,-204 835,-610zm-28 -942l0 0c-4,-174 -33,-329 -86,-464 -53,-135 -143,-250 -270,-345 -127,-95 -279,-142 -457,-142 -239,0 -442,86 -609,257 -167,172 -260,403 -281,694l1703 0z"/>
    <path class="fil5" d="M45494 33825l-525 0 0 -4188 1485 0c464,0 807,127 1028,379 221,253 331,541 331,864 0,360 -120,657 -360,892 -241,236 -555,353 -944,353l-1015 0 0 1700zm0 -2135l0 0 963 0c248,0 447,-74 598,-223 152,-148 228,-344 228,-587 0,-209 -68,-395 -203,-559 -135,-163 -330,-245 -586,-245l-1000 0 0 1614z"/>
    <polygon class="fil5" points="48764,33825 48282,33825 48282,29637 48764,29637 "/>
    <path class="fil5" d="M51994 33825l-476 0c-18,-98 -37,-285 -55,-558 -213,429 -575,644 -1086,644 -348,0 -615,-92 -801,-277 -186,-184 -279,-405 -279,-663 0,-314 133,-571 399,-773 265,-202 718,-303 1356,-303 86,0 223,4 411,13 0,-246 -19,-423 -57,-533 -38,-109 -118,-197 -241,-262 -123,-65 -284,-98 -484,-98 -489,0 -774,186 -853,558l-445 -77c108,-570 564,-855 1368,-855 427,0 731,94 910,283 179,190 268,517 268,984l0 1316c0,219 21,419 65,601zm-531 -1549l0 0c-196,-13 -346,-19 -448,-19 -380,0 -676,63 -887,188 -211,125 -316,307 -316,547 0,152 57,281 170,388 114,106 278,160 493,160 290,0 529,-106 716,-317 187,-211 281,-459 281,-744 0,-58 -3,-125 -9,-203z"/>
    <path class="fil5" d="M54141 33497l0 380c-170,23 -318,34 -442,34 -600,0 -899,-313 -899,-940l0 -1867 -549 0 0 -378 549 0 21 -779 448 -43 0 822 694 0 0 378 -694 0 0 1947c0,320 166,480 497,480 111,0 235,-12 375,-34z"/>
    <path class="fil5" d="M55796 30726l0 378 -736 0 0 2721 -481 0 0 -2721 -528 0 0 -378 528 0c8,-497 103,-817 286,-960 183,-143 407,-215 671,-215 128,0 276,15 442,43l0 384c-105,-27 -204,-40 -298,-40 -211,0 -367,47 -468,140 -101,93 -152,267 -152,523l0 125 736 0z"/>
    <path class="fil5" d="M57204 33911c-425,0 -757,-158 -995,-473 -239,-315 -358,-706 -358,-1173 0,-494 134,-887 402,-1182 268,-295 601,-442 1000,-442 428,0 765,154 1011,465 246,310 370,697 370,1162 0,483 -133,878 -399,1184 -266,306 -609,459 -1031,459zm37 -399l0 0c245,0 451,-101 617,-304 165,-202 248,-517 248,-945 0,-429 -87,-741 -261,-934 -174,-193 -377,-290 -610,-290 -240,0 -442,98 -608,294 -165,195 -248,504 -248,927 0,448 83,769 248,962 166,193 370,290 614,290z"/>
    <path class="fil5" d="M59682 33825l-481 0 0 -3099 423 0 0 724c149,-341 299,-563 449,-664 151,-101 305,-152 462,-152 49,0 113,4 190,13l0 460 -98 0c-266,0 -486,99 -663,297 -175,199 -270,460 -282,783l0 1638z"/>
    <path class="fil5" d="M65265 33825l-469 0 0 -1927c0,-198 -14,-347 -42,-446 -27,-99 -94,-190 -201,-273 -106,-83 -226,-124 -359,-124 -184,0 -361,84 -532,253 -171,168 -256,426 -256,771l0 1746 -466 0 0 -2040c0,-272 -65,-464 -195,-577 -130,-112 -267,-169 -410,-169 -204,0 -382,88 -533,264 -152,176 -227,399 -227,669l0 1853 -460 0 0 -3099 414 0 0 596c231,-455 549,-681 954,-681 223,0 412,72 567,217 156,146 256,320 301,525 212,-495 539,-742 979,-742 210,0 395,60 553,180 159,121 262,260 310,416 48,157 72,377 72,661l0 1927z"/>
   </g>
  </g>
 </g>
</svg>
