<?xml version="1.0" standalone="no"?><!DOCTYPE svg PUBLIC "-//W3C//DTD SVG 1.1//EN" "http://www.w3.org/Graphics/SVG/1.1/DTD/svg11.dtd"><svg t="1531881735478" class="icon" style="" viewBox="0 0 1078 1024" version="1.1" xmlns="http://www.w3.org/2000/svg" p-id="2114" xmlns:xlink="http://www.w3.org/1999/xlink" width="210.546875" height="200"><defs><style type="text/css"></style></defs><path d="M747.692161 429.34488h244.862759v77.081666H747.692161zM999.49227 560.255243v71.814419h-91.598713v-104.06025h-77.081667v104.959536a212.745398 212.745398 0 0 0-196.04437 211.846112h96.737491a115.622499 115.622499 0 0 1 115.622499-115.622499h152.107821v86.459935h77.081666V560.255243h-77.081666zM633.996703 971.228992a50.231552 50.231552 0 1 0 100.334636 0c0-27.7494-50.231552-109.712905-50.231553-109.712905s-50.103083 82.091974-50.103083 109.712905z" p-id="2115"></path><path d="M215.443257 430.115697h73.356052v-73.227583h-73.356052v73.227583z m757.969716-138.233122c-40.596344-1.156225-85.946058-21.968275-127.570158-58.582066a348.409131 348.409131 0 0 1-94.168102-136.563018v-4.367961l-0.770816-1.156225a35.586036 35.586036 0 0 0-3.083267-4.111022l-1.027755-1.156225-0.770817-0.770817a35.586036 35.586036 0 0 0-6.680411-5.010308H705.425714a35.457566 35.457566 0 0 0-6.680411 5.010308l-0.770817 0.770817-1.027756 1.027755a35.329097 35.329097 0 0 0-3.083266 4.111022l-0.770817 1.284695v4.367961a349.822294 349.822294 0 0 1-71.300541 114.337805 256.938887 256.938887 0 0 1-77.081666-48.047572 359.714442 359.714442 0 0 1-94.168102-140.031694v-4.367961l-0.770817-1.284694a35.586036 35.586036 0 0 0-3.083266-4.111022l-1.027756-1.156225-0.642347-0.642348a35.457566 35.457566 0 0 0-6.680411-5.010308h-34.301341l-1.156225 0.770817a35.586036 35.586036 0 0 0-3.982553 3.083266l-1.156225 1.027756-0.770817 0.770817a35.329097 35.329097 0 0 0-4.239492 5.395716l-0.770816 1.284695v4.367961a359.714442 359.714442 0 0 1-94.168102 140.031693c-50.616961 44.578897-107.657394 65.776355-152.36476 56.526555a83.11973 83.11973 0 0 1-60.509108-48.818388 35.714505 35.714505 0 1 0-64.234722 30.575727 155.833435 155.833435 0 0 0 89.928611 82.220444v472.639082a35.714505 35.714505 0 0 0 71.42901 0V292.653392c54.214105-3.982553 111.639946-30.190319 163.670071-75.925441a406.862727 406.862727 0 0 0 80.293402-98.536063 406.862727 406.862727 0 0 0 80.293402 98.536063 346.867497 346.867497 0 0 0 64.234722 45.478183c-53.571758 36.613791-113.310049 55.113391-149.795371 16.315619a35.714505 35.714505 0 1 0-51.387777 48.946858 137.590774 137.590774 0 0 0 51.387777 34.558281v465.059385a35.714505 35.714505 0 1 0 71.429011 0V370.377405q7.836636-0.899286 15.801741-2.440919c47.148286-9.378269 98.279124-37.384608 147.73986-81.064219a418.168038 418.168038 0 0 0 80.293402-96.480552 418.039569 418.039569 0 0 0 80.293402 96.480552c54.214105 47.662164 115.622499 74.769216 172.791402 76.439319h1.027755a36.70372 36.70372 0 0 0-16.957966-71.429011zM696.304383 430.115697h-120.118929v146.969043h141.316387v-19.784295h-21.711336v-127.184748z" p-id="2116"></path></svg>