<?xml version="1.0" standalone="no"?><!DOCTYPE svg PUBLIC "-//W3C//DTD SVG 1.1//EN" "http://www.w3.org/Graphics/SVG/1.1/DTD/svg11.dtd"><svg t="1531881983500" class="icon" style="" viewBox="0 0 1024 1024" version="1.1" xmlns="http://www.w3.org/2000/svg" p-id="2457" xmlns:xlink="http://www.w3.org/1999/xlink" width="200" height="200"><defs><style type="text/css"></style></defs><path d="M693.864536 735.559659l0-90.361007c0-10.609639-20.290115-19.140942-45.178969-19.140942-17.203824 0-32.099069 3.994987-39.796378 9.963932l27.342742-311.016523c23.285333-12.682857 37.119409-28.128641 37.119409-44.949748 0-14.993482-10.831696-28.820396-29.511127-40.582277l6.687306-74.9142c0 0-8.068769-26.048259-12.914124-32.275077-5.065366-6.457062-26.048259-21.894659-26.048259-21.894659s0.698918-27.669176 0.698918-29.511127 0.461511-9.219989-23.976064-22.824845c-115.956965-42.869367-195.944717 8.068769-195.944717 8.068769l0.920976 38.731116-31.81459 13.144368-3.224438 22.815635-24.435529 16.368806 2.993171 72.380494c-29.964452 13.373589-47.943942 31.123858-47.943942 50.254567 0 20.060895 19.830651 38.500872 52.097542 52.097542l13.314237 313.895083-0.86981 0.080841c0 0.493234 0.046049 0.985444 0.116657 1.476631-43.323715 17.287735-70.877257 42.960441-70.877257 71.592548 0 20.744463 14.517645 40.114626 38.954197 55.56041l0 100.050694 0 0.459464c3.685949 41.948391 75.374688 75.373665 159.524227 75.373665 84.135212 0 155.832138-33.425274 159.518087-75.373665l0-57.112766c4.257977 0.725524 8.633634 1.091868 13.135158 1.091868 33.196053 0 59.94323-21.442358 59.94323-47.951105C713.695187 757.002017 706.087928 744.318136 693.864536 735.559659zM355.724259 326.555427c31.867802 11.661597 73.832566 18.733667 120.531144 18.733667 55.689347 0 106.635669-10.013051 141.645021-25.856901L594.022597 653.720745c-21.952988 11.724019-65.615417 20.060895-113.38335 20.060895-49.486064 0-93.499487-9.17701-114.01473-21.843494L355.724259 326.555427zM351.77839 240.173035l-2.772136-71.237461 21.895683-16.137539 3.001357-22.586414 28.352745-12.913101-0.921999-38.033221c0 0 71.459518-50.254567 175.193091-8.068769 21.902846 13.366426 21.443381 20.751626 21.443381 22.594601 0 1.841951-0.691755 29.042453-0.691755 29.042453s18.901489 15.216563 23.277146 21.435195c4.383844 6.225795 11.531638 31.81459 11.531638 31.81459l-5.995551 73.770144c16.59905 11.523451 24.437575 12.674671 24.437575 28.351722 0 3.38919-0.497327 5.967922-1.485841 8.057513-4.015454 3.541663-8.688893 6.942109-13.959943 10.172687-4.431939 2.055822-9.806343 4.527107-16.131399 8.27957l-0.01842 0.252757c-35.041074 16.077164-86.415139 26.25599-142.449339 26.25599-47.092551 0-89.310072-7.15291-121.239272-18.937305l-0.021489-0.653893c-8.200776-3.806699-15.633049-6.603395-22.074761-9.104355-10.244318-5.418406-18.732643-11.438517-25.14775-17.915022-0.623193-1.950422-0.952698-4.13825-0.952698-6.637164C307.049676 258.613012 325.260433 253.308193 351.77839 240.173035zM366.985744 662.717653l-0.01535-0.453325c21.044292 12.174274 64.170508 20.966521 112.508423 20.966521 48.143487 0 92.15077-8.492418 113.895003-20.454868l-0.01228 0.172939c39.185464 16.82827 64.772212 35.038004 64.772212 59.474556 0 6.689353-1.095961 11.33107-3.128247 14.874779-4.078899 3.838422-8.698103 7.518231-13.808494 11.016915-5.457292 2.825348-12.044314 5.969968-19.48375 11.219529l0.002047 0.094144c-35.063587 17.33583-84.20889 28.028357-138.774647 28.028357-57.769728 0-110.228497-10.128685-146.149615-27.810393l-0.00921-0.540306c-21.894659-15.217586-33.196053-12.676717-33.196053-37.119409C303.586808 697.755658 327.79414 679.777191 366.985744 662.717653zM480.639247 932.426375c-75.159794 0-139.242298-32.967856-142.695956-74.232678l0.459464-0.222057-1.406023-85.641519c35.93442 17.689894 88.280626 28.241204 145.706523 28.241204 54.622038 0 104.062054-10.780531 139.221832-28.113291l1.401929 85.735663C620.095415 899.458519 556.013935 932.426375 480.639247 932.426375z" p-id="2458" fill="#2c2c2c"></path><path d="M431.989223 162.02621l28.128641 0c5.765307 0 10.602476-4.844332 10.602476-10.610662l0-20.512173 29.043477 0c6.463202 0 11.759835-5.297656 11.759835-11.761881 0-6.448876-5.296633-11.753695-11.759835-11.753695l-59.006905 0c-6.457062 0-11.532661 5.074575-11.753695 11.293207-4.384867 1.381463-7.609305 5.305843-7.609305 10.149151l0 22.586414C421.393911 157.181879 426.231079 162.02621 431.989223 162.02621z" p-id="2459" fill="#2c2c2c"></path></svg>