<?xml version="1.0" standalone="no"?><!DOCTYPE svg PUBLIC "-//W3C//DTD SVG 1.1//EN" "http://www.w3.org/Graphics/SVG/1.1/DTD/svg11.dtd"><svg t="1531806790253" class="icon" style="" viewBox="0 0 1024 1024" version="1.1" xmlns="http://www.w3.org/2000/svg" p-id="2532" xmlns:xlink="http://www.w3.org/1999/xlink" width="200" height="200"><defs><style type="text/css"></style></defs><path d="M846.848 136.533333h-170.666667a51.2 51.2 0 0 0-51.2 51.2v224.597334a51.2 51.2 0 0 0 51.2 51.2h170.666667a51.2 51.2 0 0 0 51.2-51.2V187.733333a51.2 51.2 0 0 0-51.2-51.2z m17.066667 275.456a17.066667 17.066667 0 0 1-17.066667 17.066667h-170.666667a17.066667 17.066667 0 0 1-17.066666-17.066667V187.733333a17.066667 17.066667 0 0 1 17.066666-17.066666h170.666667a17.066667 17.066667 0 0 1 17.066667 17.066666z" fill="#2c2c2c" p-id="2533"></path><path d="M813.226667 217.770667h-58.709334a17.066667 17.066667 0 0 0 0 34.133333h58.709334a17.066667 17.066667 0 0 0 0-34.133333zM813.226667 283.136h-58.709334a17.066667 17.066667 0 0 0 0 34.133333h58.709334a17.066667 17.066667 0 0 0 0-34.133333zM813.226667 348.501333h-58.709334a17.066667 17.066667 0 1 0 0 34.133334h58.709334a17.066667 17.066667 0 0 0 0-34.133334zM697.856 222.72l-2.218667 2.56-1.536 2.901333-1.024 3.242667a23.210667 23.210667 0 0 0 0 3.413333 17.066667 17.066667 0 0 0 5.12 11.946667 17.066667 17.066667 0 0 0 11.946667 5.12 17.066667 17.066667 0 0 0 12.117333-5.12 17.066667 17.066667 0 0 0 0-24.064 17.066667 17.066667 0 0 0-24.405333 0zM721.92 288.085333a17.066667 17.066667 0 0 0-15.36-4.608 10.24 10.24 0 0 0-3.242667 1.024 9.557333 9.557333 0 0 0-2.901333 1.536l-2.56 2.048a17.066667 17.066667 0 0 0 0 24.234667 17.066667 17.066667 0 0 0 27.818667-18.602667 20.309333 20.309333 0 0 0-3.754667-5.632zM697.856 353.621333a17.066667 17.066667 0 0 0-5.12 11.946667 17.066667 17.066667 0 0 0 1.365333 6.656 14.848 14.848 0 0 0 3.754667 5.461333 17.066667 17.066667 0 0 0 24.064 0 17.066667 17.066667 0 0 0 3.754667-5.461333 17.066667 17.066667 0 0 0 1.194666-6.656 17.066667 17.066667 0 0 0-4.949333-11.946667 17.066667 17.066667 0 0 0-24.064 0zM825.685333 906.069333h-44.714666v-5.632a74.24 74.24 0 0 0-74.069334-74.069333h-35.498666l-36.010667-134.314667 86.869333-23.210666A17.066667 17.066667 0 0 0 733.866667 648.533333l-14.677334-54.954666a17.066667 17.066667 0 0 0-20.992-11.946667l-242.858666 64.512a17.066667 17.066667 0 0 0-11.605334 20.821333l14.848 54.954667a17.066667 17.066667 0 0 0 20.821334 12.117333l41.472-11.093333 3.754666 13.482667a156.501333 156.501333 0 0 1-176.981333-72.362667A85.333333 85.333333 0 0 0 341.333333 512a160.085333 160.085333 0 0 1 72.362667-72.533333l22.528 78.336a17.066667 17.066667 0 0 0 21.162667 11.605333l11.434666-3.242667 14.165334 49.664a17.066667 17.066667 0 0 0 21.162666 11.605334l61.610667-17.066667a17.066667 17.066667 0 0 0 11.776-21.162667L563.2 498.346667l11.434667-3.242667a17.066667 17.066667 0 0 0 11.605333-21.162667l-75.605333-261.290666a17.066667 17.066667 0 0 0-20.992-11.776h-1.706667l-9.898667-34.133334a62.464 62.464 0 0 0 27.136-69.973333 29.866667 29.866667 0 0 0-37.034666-20.48L324.266667 117.418667a30.037333 30.037333 0 0 0-20.48 37.205333 62.634667 62.634667 0 0 0 60.245333 45.056l9.898667 34.133333h-1.877334a17.066667 17.066667 0 0 0-11.605333 22.186667l6.826667 24.064a324.266667 324.266667 0 0 0-95.744 546.133333h-9.898667A74.24 74.24 0 0 0 187.733333 900.437333v5.632H143.018667a17.066667 17.066667 0 0 0 0 34.133334h682.666666a17.066667 17.066667 0 0 0 0-34.133334z m-189.610666-79.701333h-52.565334l-30.037333-112.298667 48.981333-13.141333z m-149.504-129.706667l-5.973334-22.016 210.432-56.32 5.973334 22.016zM358.4 589.482667a51.2 51.2 0 1 1-51.2-51.2 51.2 51.2 0 0 1 51.2 51.2z m152.405333-40.277334l-9.557333-33.109333 27.818667-8.362667 9.557333 33.28z m37.888-82.261333l-85.333333 24.234667-7.850667-27.477334 84.48-24.234666zM482.645333 238.933333l48.128 168.277334-85.333333 24.234666-48.128-168.277333z m-85.333333-45.738666l48.469333-13.824 9.045334 31.914666-48.298667 13.824z m-25.6-28.501334a28.672 28.672 0 0 1-34.133333-15.701333l135.338666-38.741333a28.330667 28.330667 0 0 1-20.309333 31.061333z m-177.493333 417.109334a290.133333 290.133333 0 0 1 182.442666-269.312l26.794667 93.013333a194.730667 194.730667 0 0 0-97.28 99.157333 85.333333 85.333333 0 0 0 1.024 170.666667h5.973333a194.730667 194.730667 0 0 0 170.666667 102.4 189.610667 189.610667 0 0 0 48.64-6.485333l15.189333 56.661333H328.362667a288.085333 288.085333 0 0 1-134.144-246.101333z m552.618666 324.266666H221.866667v-5.632a39.936 39.936 0 0 1 39.936-39.936h445.098666a39.936 39.936 0 0 1 39.936 39.936z" fill="#2c2c2c" p-id="2534"></path><path d="M284.501333 589.482667A22.698667 22.698667 0 1 0 307.2 566.784a22.528 22.528 0 0 0-22.698667 22.698667z" fill="#2c2c2c" p-id="2535"></path></svg>